<svg xmlns="http://www.w3.org/2000/svg" viewBox="0 0 86.28 99.31"><defs><style>.cls-1,.cls-2{fill:#fff;}.cls-2{font-size:18.51px;font-family:HelveticaNeue-ThinItalic, Helvetica Neue;font-weight:200;font-style:italic;}</style></defs><title>Asset 8</title><g id="Layer_2" data-name="Layer 2"><g id="图层_1" data-name="图层 1"><path class="cls-1" d="M55.05,35.85l-.22-.14-.18-.15a.86.86,0,0,0-.43-.27,2.76,2.76,0,0,1-.68-.31l-.38-.2a4.32,4.32,0,0,0-1.75-.45h-.18A6.88,6.88,0,0,1,50,34.25a3.51,3.51,0,0,0-.91,0,20.63,20.63,0,0,0-2.88.45l-.53.13c-.23.07-.47.13-.7.18l-.58.14a6.8,6.8,0,0,1-1.11.21h-.09a.19.19,0,0,1-.12,0s0,0,0-.1,0-.21,0-.31,0-.32,0-.47,0-.56,0-.84a7.4,7.4,0,0,1,.09-1.14,3.37,3.37,0,0,0,0-.84l0-.3a4.07,4.07,0,0,1,.09-1q.06-.35.09-.69s0-.07,0-.07a1.46,1.46,0,0,0,.48-.09,1,1,0,0,1,.37-.08h1.49a3,3,0,0,0,1.15-.17,1.56,1.56,0,0,0,.86-.72.6.6,0,0,0,.1-.51.43.43,0,0,0-.21-.21c.14-.14.15-.24.11-.55a.17.17,0,0,0,0-.07c0-.08,0-.12,0-.14a.63.63,0,0,0,.12-.8,1.23,1.23,0,0,0,.35-.33,1,1,0,0,1,.23-.23.27.27,0,0,0-.12-.48.68.68,0,0,1-.22-.12L47.89,25c-.14-.08-.16-.13-.11-.29s.11-.41,0-.55-.26-.19-.49-.23l-.16,0a1.29,1.29,0,0,0-.9.06,1,1,0,0,1-1,0c-.12-.06-.3-.09-.39,0s-.2.12-.4.1l-.19,0-.34,0A1.84,1.84,0,0,1,43,24a.84.84,0,0,0-.91.14.4.4,0,0,1-.3.1,5.45,5.45,0,0,0-.7,0,3.65,3.65,0,0,1-.66,0,16.58,16.58,0,0,0-3,0l-1.11,0H36a7.53,7.53,0,0,0-.83.08l-.49.05c-.35,0-.73.07-1.1.08a3.07,3.07,0,0,0-.53.06l-.38.05a9,9,0,0,0-2.05.45,10.8,10.8,0,0,1-1.83.42c-.38.07-.48,0-.62-.4a.16.16,0,0,0-.11-.1.18.18,0,0,0-.17,0l0,0v0a1.44,1.44,0,0,0,.22.68v0c0,.06.07.11.1.16s.1.12.09.15,0,0-.13.1a.17.17,0,0,0-.08.19.74.74,0,0,1,0,.3,1.07,1.07,0,0,0,0,.43,1.87,1.87,0,0,0,.94.94l.12.07a3.23,3.23,0,0,0,1.42.44l.34,0c.57,0,1.15.08,1.71.17.91.15,1.84.23,2.75.31l1.37.13a5.89,5.89,0,0,0,.84,0,5.87,5.87,0,0,1,.94,0,4.4,4.4,0,0,0,.81,0,3.51,3.51,0,0,1,.92.08h.05c.19,0,.2.06.2.13a4.21,4.21,0,0,0,0,.62,3,3,0,0,1,0,.73l0,.12a2.82,2.82,0,0,0,0,.52v1c0,.38,0,.77,0,1.16a9.75,9.75,0,0,1,0,1.08c0,.38,0,.77,0,1.16,0,.11,0,.17-.19.19a5.33,5.33,0,0,0-.83.17c-.78.23-1.56.49-2.32.74l-.26.08c-.69.23-1.41.46-2.09.75l-.18.07c5.83-2.4,5.25-2-1.51.61l-1.83.83,6.34-7s.07-.1.1-.16a1.63,1.63,0,0,1,.11-.17c.14-.27,0-.4-.07-.46s-6.26,6.07-6.34,6.12l-.08.05-1.19.68c-.26.15-.52.32-.77.49l-.58.38a8.16,8.16,0,0,0-1,.68l-.62.47-.46.3a10.17,10.17,0,0,0-.94.68.41.41,0,0,1-.39.11,9.22,9.22,0,0,0-1.16-.25l-.54-.1a.92.92,0,0,0-.84.34.65.65,0,0,0,0,.85.9.9,0,0,1,.21.64c0,.15,0,.31,0,.46s0,.41,0,.61a2.24,2.24,0,0,1-.13.84l0,.08a1.79,1.79,0,0,0-.15,1,.43.43,0,0,1,0,.34,1,1,0,0,0-.12.3c-.07.31-.14.62-.2.94l-.15.67a.93.93,0,0,0,.09.6.57.57,0,0,0,.43.38.49.49,0,0,0,.42-.17v0l-.05.15a3.47,3.47,0,0,0-.13.46.78.78,0,0,0,.39.84,1,1,0,0,0,.42.13.75.75,0,0,0,.53-.31l.05-.05c.05-.06.08-.09.12-.09h0a3.4,3.4,0,0,0,1-.16,3.9,3.9,0,0,1,.59-.14.54.54,0,0,0,.29-.15,1,1,0,0,1,.58-.28.6.6,0,0,0,.37-.19,1.13,1.13,0,0,1,.41-.27,5.21,5.21,0,0,0,.56-.34A4.7,4.7,0,0,1,29,48.2a.49.49,0,0,0,.2-.18,2.32,2.32,0,0,1,1.07-.82,1.13,1.13,0,0,0,.31-.21,6.72,6.72,0,0,1,1.24-.91l.24-.12a4.54,4.54,0,0,0,.84-.5,3.58,3.58,0,0,1,.81-.47,5.69,5.69,0,0,0,.72-.4l.11-.05a.55.55,0,0,0,.29-.24h.05a.61.61,0,0,0,.4-.09l.1-.05a5.85,5.85,0,0,0,.71-.35,5.2,5.2,0,0,1,1-.43,6,6,0,0,0,1.2-.51c.73-.4,1.51-.78,2.4-1.18.12,0,.15-.06.15-.07a.93.93,0,0,1,0,.16c.08.48.13,1,.17,1.59,0,.08,0,.16,0,.24a1.48,1.48,0,0,1,0,.63,1.79,1.79,0,0,0,.45,1.68,1,1,0,0,1,.19.3,6,6,0,0,0,.28.63,4.46,4.46,0,0,1,.25.55,1.73,1.73,0,0,0,.72.79l.21.16.06-.16a1.74,1.74,0,0,0,.11-.7v-.44c0-.56,0-1.14,0-1.72a17.52,17.52,0,0,0-.12-2.2c0-.11,0-.22,0-.33s0-.22,0-.33,0-.34-.05-.52L43,41.08a.89.89,0,0,1,.43-.9.54.54,0,0,0,.32-.46c0-.28.16-.43.38-.61a5.16,5.16,0,0,1,.46-.29,2.85,2.85,0,0,0,.52-.33A4.34,4.34,0,0,1,46,38l.19-.09c.51-.25,1-.45,1.58-.65l.06,0a5.8,5.8,0,0,1,2.33-.44h0c.74,0,.74,0,1.08.7a.78.78,0,0,0,.64.46.38.38,0,0,1,.31.24,2.12,2.12,0,0,0,.12.2,1.19,1.19,0,0,1,.09.15,2.78,2.78,0,0,0,.76,1,.47.47,0,0,1,.16.15.77.77,0,0,0,.62.46l.18.05a1.46,1.46,0,0,0,.76.1.58.58,0,0,0,.52-.31c0-.12.15-.34.27-.39a.86.86,0,0,0,.49-.76,3.76,3.76,0,0,1,.2-.73,1.31,1.31,0,0,0-.27-1.35A4.05,4.05,0,0,0,55.05,35.85Zm-5,.27-.55.09-.63.11-.12,0a5.07,5.07,0,0,0,.72-.24.45.45,0,0,1,.2,0,1.54,1.54,0,0,1,.3,0Z"/><path class="cls-1" d="M58.15,7.57c.22-.58-.77-1.72-1-2.22A1.66,1.66,0,0,1,57,5c-.06-.29-.13-1.2-.47-1.38a10.57,10.57,0,0,1-.91-.56l-.5-.32L55,2.66a6.5,6.5,0,0,1-.53-.52,3.14,3.14,0,0,0-1.33-.69,2.58,2.58,0,0,1-.31-.13A2.34,2.34,0,0,0,51,1l-.1,0-.16,0a.53.53,0,0,1-.46,0,.54.54,0,0,0-.64.07.21.21,0,0,1-.23.06.29.29,0,0,0-.32.05.51.51,0,0,1-.38,0,.79.79,0,0,0-.81.26.63.63,0,0,1-.42.21c-.5.06-1.15.15-1.81.29S42.82,3.29,42.15,3.5s-1.12.39-1.66.59l-1,.36-.13,0A9,9,0,0,0,38.05,5c-.53.28-1.09.53-1.62.78l-.94.44c-.35.16-.69.33-1,.51l-1,.47c-.25.12-.49.26-.73.4l-.41.24-.91.5-1.25.68-2.1,1.2-.67.35c-.26.13-.53.27-.78.42-1.15.71-1.71.93-1.27.7-.23.12-.25.11-.41-.07,0,0,0,0,0,0a.24.24,0,0,0-.27-.12.39.39,0,0,0-.26.36.33.33,0,0,0,0,.17.43.43,0,0,1,0,.05.36.36,0,0,1,0,.37,1.17,1.17,0,0,0-.26.38l-.09.17a.37.37,0,0,0-.08.31c0,.11.13.15.24.19a.56.56,0,0,1,.35.37,1.18,1.18,0,0,0,.6.64.71.71,0,0,0,.58.07.72.72,0,0,0,.41-.41A.44.44,0,0,1,26.3,14l.33-.23c.24-.17-.87-1-.62-1.12s.79-.47,1.17-.69l.4-.23c.43-.25,1.76-.57,2.19-.81l.42-.25.54-.31a14.62,14.62,0,0,1,1.4-.77c1-.5,2.06-1,2.9-1.47,1-.52,2.32-1.1,3.69-1.66l.1,0c.69-.29,1.4-.58,2.12-.82l.07,0A47.85,47.85,0,0,1,45.7,4.4a7.4,7.4,0,0,1,2.47-.06c.18,0,.35.33.43.43a4.72,4.72,0,0,1-.08,1.1,4.29,4.29,0,0,1-.9,1.71c-.34.49-.77.59-1.19,1-.15.14-.3.28-.44.43a21.34,21.34,0,0,1-3,2.5l-.27.17a3.73,3.73,0,0,0-.48.33,10.64,10.64,0,0,1-1.58,1.1l-.78.5c-.32.21-.65.41-1,.61s-.89.54-1.32.85l-.33.23a2.2,2.2,0,0,0-.25.17,1.54,1.54,0,0,1-1.16.29,4.81,4.81,0,0,0-1-.09.74.74,0,0,0-.76.77,2.61,2.61,0,0,0,.12.89c.07.18.12.37,0,.49a1,1,0,0,0-.21.51.83.83,0,0,1,0,.15,1.26,1.26,0,0,0,.21,1l.3.4c.13.19.27.37.38.57a.75.75,0,0,1,.07.12,1.36,1.36,0,0,0,.21.34l.2.26c.16.19.31.39.49.57s.27.25.44.23a.55.55,0,0,0,.35-.28c.05-.09.11-.18.17-.27s.28-.43.41-.66a.85.85,0,0,1,.78-.44l.29,0a10.66,10.66,0,0,0,2.17-.28A5,5,0,0,1,41,20a2.29,2.29,0,0,0,1.09-.32h0c.27,0,.54-.08.8-.12l.42-.07a3,3,0,0,1,.94,0,4.46,4.46,0,0,0,.51.07c.1,0,.11.05.11.06l0,0-.06.06a.8.8,0,0,1-.3.19l-.9.38c-.38.16-.77.33-1.17.46a7.68,7.68,0,0,0-1.08.44l-.12.06a10.13,10.13,0,0,1-1,.42c-.41.14-.81.32-1.19.49l-.5.21-.08,0,0,.33.14-.08c.12-.07.22,0,.38,0a.68.68,0,0,0,.45.08v0a1.5,1.5,0,0,0,1.15.53,2,2,0,0,0,.34,0,1.93,1.93,0,0,0,.34-.11,1.35,1.35,0,0,1,.33-.09A4.7,4.7,0,0,0,43,22.71l.26-.1c.48-.18,1-.4,1.43-.6s.78-.35,1.18-.51l0,0a4.05,4.05,0,0,1,1.46-.39.49.49,0,0,0,.45-.35c0-.09.07-.19.1-.28a2.18,2.18,0,0,1,.31-.63.44.44,0,0,0,.08-.42,1.63,1.63,0,0,1,0-.34.54.54,0,0,0-.31-.48l-.28-.19a1.6,1.6,0,0,0-.23-.16,1,1,0,0,0-1.05-.19,1.38,1.38,0,0,1-1.14.05,2.43,2.43,0,0,0-.55-.08c-.4,0-.81,0-1.21-.05l-.53,0a7.32,7.32,0,0,0-1.17,0h-.12a15.77,15.77,0,0,1-3.57.09,2.69,2.69,0,0,1-1.34-.5.32.32,0,0,1,.18-.15,2.83,2.83,0,0,0,1-.47l.18-.11L39.53,16l.4-.27a4.1,4.1,0,0,1,.56-.36l.66-.39.43-.25c.41-.24.8-.51,1.18-.78l.55-.39L44.1,13c.65-.44,1.33-.89,2-1.36l.13-.1a1.51,1.51,0,0,1,.56-.32.83.83,0,0,0,.41-.29l.09-.1.14-.14c.22-.24.41-.44.75-.34a.26.26,0,0,0,.2,0l0,0c.32-.08,8.69-1.61,8.71-1.68.16-.51,1.15-.53,1-.92A.29.29,0,0,1,58.15,7.57Z"/><path class="cls-1" d="M21.21,36a.44.44,0,0,0-.07-.41.22.22,0,0,0-.16-.07.34.34,0,0,0-.22.14l0,0a1.84,1.84,0,0,1-.53.36l-.33.14a2.71,2.71,0,0,0-.71.41,5.83,5.83,0,0,1-.8.53l-.13.07c-.16.1-.33.18-.49.27s-.37.18-.55.29a8,8,0,0,1-1.41.63l-1.32.44-.24.07a.62.62,0,0,1-.71-.1.92.92,0,0,0-.61-.27.24.24,0,0,1-.15,0,.65.65,0,0,0-.42-.25h0a4.76,4.76,0,0,1-.75-.31l-.15-.07A21.32,21.32,0,0,0,9,36.87a9.89,9.89,0,0,1-1.87-.82,3.51,3.51,0,0,1-.62-.45.19.19,0,0,1-.06-.27c0-.11.08-.22.11-.33a3.4,3.4,0,0,1,.12-.34,19.85,19.85,0,0,1,.94-2v0A32.49,32.49,0,0,1,9.2,29.79c.62-.95,1.31-1.92,2.09-3,.31-.41.65-.8,1-1.17l.41-.49.38-.43c.18-.21.37-.42.55-.65s.32-.37.48-.55a6.84,6.84,0,0,0,.55-.64,4,4,0,0,1,.58-.58,3.67,3.67,0,0,0,.78-.87l0-.05.09-.07.15-.16a2.32,2.32,0,0,0,.49-.65,5.62,5.62,0,0,0,.34-1.16,3,3,0,0,1,.07-.32l0-.16h-.49s0-.09,0-.13v0a.61.61,0,0,0-.08-.51l-.09-.12-.1.1a1.37,1.37,0,0,1-.46.32.69.69,0,0,0-.25.2,3.66,3.66,0,0,1-.63.58,3.64,3.64,0,0,0-.49.48c-.15.18-.3.38-.45.57-.29.36-.59.73-.89,1.07l0,0a28.16,28.16,0,0,0-2,2.39l-.33.44c-.17.21-.33.43-.49.66s-.33.52-.5.78-.45.73-.7,1.07a24.53,24.53,0,0,0-1.51,2.46l-.36.64c-.3.52-.57,1.08-.83,1.62-.07.16-.15.32-.22.47a12.83,12.83,0,0,0-.81,2.43.54.54,0,0,1-.12.29.53.53,0,0,0-.12.45v.1c.05.6.1,1.21.1,1.82a6.77,6.77,0,0,0,.12,1.28.55.55,0,0,0,.33.47,3.81,3.81,0,0,1,.7.35l.43.23c.28.14.55.29.82.44a12,12,0,0,0,1.13.58h0a2.6,2.6,0,0,1,.47.24c.14.1.29.19.44.28s.44.28.65.44a1,1,0,0,1,.37.51,2.42,2.42,0,0,0,1.59,1.77.92.92,0,0,1,.46.34l.15.18a1.35,1.35,0,0,0,.47.45,1.85,1.85,0,0,1,.61.54,2.67,2.67,0,0,0,.75.62,1.12,1.12,0,0,1,.44.38,1.08,1.08,0,0,0,1.07.53c.13,0,.24,0,.35,0h0a.2.2,0,0,0,.14-.07,1.08,1.08,0,0,1,.45-.26l.23-.1a.44.44,0,0,0,.27-.27,4.48,4.48,0,0,1,.37-.8,3.07,3.07,0,0,0,.17-.31.88.88,0,0,0,.09-.41,8.79,8.79,0,0,0-.16-1.78.86.86,0,0,1,0-.32,1.37,1.37,0,0,0-.15-.91,5,5,0,0,1-.27-.51l-.15-.29c-.17-.33-.17-.33,0-.63l.09-.11,0,0c.29-.33.62-.63.93-.92A9.79,9.79,0,0,0,20,37.76a4.26,4.26,0,0,1,.42-.43,4.16,4.16,0,0,0,.49-.53.39.39,0,0,1,.08-.1.6.6,0,0,0,.17-.64,0,0,0,0,1,0,0S21.21,36,21.21,36Z"/><path class="cls-1" d="M10.35,10.28a.52.52,0,0,0,.34.53s.05.09.07.18a2.31,2.31,0,0,0,.54,1,3.73,3.73,0,0,0,.32.36,5.07,5.07,0,0,1,.37.44,16.78,16.78,0,0,0,1.55,2l.26.26a1.72,1.72,0,0,1,.4.46,4,4,0,0,0,.24.41,3,3,0,0,1,.31.59.35.35,0,0,0,.32.26l.25,0a4.91,4.91,0,0,0,.55,0,1.69,1.69,0,0,0,.72-.15l.12,0a.33.33,0,0,0,.32-.14,1.84,1.84,0,0,1,.17-.22,1,1,0,0,0,.26-.42,3.44,3.44,0,0,1,.25-.56c.06-.12.12-.24.17-.36l.06-.12a.64.64,0,0,0,.12-.29,5.65,5.65,0,0,0,0-2A5.16,5.16,0,0,1,18,11.06a1.26,1.26,0,0,1,0-.27l0-.13h0a.36.36,0,0,0-.23-.4,2.46,2.46,0,0,1-.47-.3,1.46,1.46,0,0,0-1-.4.26.26,0,0,1-.12-.05,2.55,2.55,0,0,0-.88-.25l-.59-.11c-.41-.07-.83-.15-1.25-.19a1.64,1.64,0,0,1-.28-.07,1,1,0,0,0-.47-.08A8,8,0,0,0,11.5,9c-.27.07-.39.08-.54-.09a.38.38,0,0,0-.37-.14.39.39,0,0,0-.28.31l0,.1a1,1,0,0,0,0,.75A1,1,0,0,1,10.35,10.28Z"/><path class="cls-1" d="M48.37,98.25c-.15-.16-.34.47-.46.45h-.1l-.14.62c-.3-.06-.61-.13-.92-.18-.1,0-.22-.69-.35-.69s-.31-.61-.46-.54l-.08,0a.9.9,0,0,1,.09-.33,1.13,1.13,0,0,0,0-1.22.43.43,0,0,1,0-.05c-.07-.35-.27-.41-.38-.41h0a.58.58,0,0,0,.08-.68,1.72,1.72,0,0,1-.08-1,.66.66,0,0,0,0-.4.36.36,0,0,1,0-.1,6.43,6.43,0,0,1,.05-1.32c.1-.78.17-7.54.15-8.24a.56.56,0,0,1,.09-.41.53.53,0,0,0,.1-.5v-.07a.37.37,0,0,1,0-.17,5.45,5.45,0,0,0,0-1,4.82,4.82,0,0,1,0-.85,1.27,1.27,0,0,0,0-.39,8.54,8.54,0,0,1-.12-.92,5.65,5.65,0,0,0-.16-1.07l0-.12a2.77,2.77,0,0,0-.12-.41,1,1,0,0,1-.08-.24.15.15,0,0,0,.09,0h0a.24.24,0,0,0,.2-.12.38.38,0,0,0,.17.32.28.28,0,0,0,.18.06h0a.33.33,0,0,0,.19-.06.46.46,0,0,0,.15-.45.71.71,0,0,0,0-.17v0l-.06-.11h0a.66.66,0,0,0,.12-.5,1.94,1.94,0,0,0-.12-.59,1.64,1.64,0,0,1,0-.67,3.49,3.49,0,0,0,0-.46c0-.43,0-.88,0-1.32,0-.24,0-.48,0-.72v0c0-.17,0-.19.06-.23a.71.71,0,0,0,.26-.55v-.06c0-.25.08-.5.11-.75.09-.55.18-1.13.22-1.69l0-.42c0-.3,0-.61.07-.91a7.69,7.69,0,0,0,0-1.17c0-.17,0-.35,0-.52v0A.48.48,0,0,0,47,66.6a1.31,1.31,0,0,1-.14-.69c0-.09,0-.17,0-.25,0-.37,0-.75,0-1.13s0-.6,0-.9c0-.45,0-.92,0-1.38s0-1.16,0-1.74a2,2,0,0,0,0-.26,2.36,2.36,0,0,1,0-.53.6.6,0,0,0-.19-.48c-.14-.11-.23-.21-.13-.5a.26.26,0,0,0-.09-.28A.23.23,0,0,0,46,58.4a.17.17,0,0,0-.12,0,1.48,1.48,0,0,0-.28.17l-.12.07h0a2,2,0,0,0,0-.24,12.66,12.66,0,0,1,0-2.5,2.7,2.7,0,0,0-.1-.83c0-.06,0-.12,0-.18a4.92,4.92,0,0,1-.13-1.15,2.27,2.27,0,0,0,0-.45,2.29,2.29,0,0,1,0-.52.53.53,0,0,1,.14-.33,1.5,1.5,0,0,0,.6-1.25,1.68,1.68,0,0,0,0-.2s0-.08,0-.13.07-.19.1-.2a.68.68,0,0,0,.41-.63.5.5,0,0,1,0-.2h0l.11,0a1.27,1.27,0,0,0,.26,0l.26,0a.22.22,0,0,1,.16,0,.44.44,0,0,0,.25.08.41.41,0,0,0,.24-.08.26.26,0,0,1,.18,0,.93.93,0,0,0,.22,0h.1a.57.57,0,0,1,.24.06l.18.06.16,0a6.47,6.47,0,0,1,.94.31,2,2,0,0,0,.45.16,1.65,1.65,0,0,1,.47.19.77.77,0,0,0,.38.1.85.85,0,0,1,.56.24,1.23,1.23,0,0,0,.61.22,1.4,1.4,0,0,1,.24.06l.83.24.51.15.06,0a.57.57,0,0,1-.07.12.83.83,0,0,0,0,1,.42.42,0,0,1,.09.31.77.77,0,0,0,.25.58.5.5,0,0,1,.15.48.47.47,0,0,0,0,.2,1.59,1.59,0,0,1-.11,1c0,.15-.09.31-.12.46a.83.83,0,0,1-.17.34,3.54,3.54,0,0,0-.45.86l0,.06a.59.59,0,0,1-.24.28c-.33.24-.69.47-1.12.73a.71.71,0,0,0-.4.78A18.77,18.77,0,0,0,52,61.12c.06.3.1.62.14.92a.61.61,0,0,0,.13.35.19.19,0,0,1,0,.12L52.43,64a.16.16,0,0,1,0,0,.49.49,0,0,0,0,.57s0,.08,0,.13a.94.94,0,0,0,.15.64,1.18,1.18,0,0,1,0,.92,1.42,1.42,0,0,0,0,.86,2.64,2.64,0,0,1,.12.81v.23a2.91,2.91,0,0,0,.09.92,1.16,1.16,0,0,1,0,.35c0,.16,0,1.72.05,1.9v0a.37.37,0,0,0,.2.32c.05,0,.06.09.06.32v1c0,.08,0,.1,0,.1h0a.65.65,0,0,0-.47.6c0,.06,0,.12,0,.17a.93.93,0,0,0,0,.66l0,0a1.31,1.31,0,0,0,0,.15l0,.1a.78.78,0,0,0,0,.46.28.28,0,0,1,0,.27.64.64,0,0,0-.1.35,1,1,0,0,1,0,.19l-.13.08-.09.06-.06,0a.24.24,0,0,0-.08.34c.06.11,0,.21-.06.42l-.07.18c0,.11-.08.22-.12.33a4.49,4.49,0,0,0-.21.65.86.86,0,0,0-.3,0c-.27,0-.6.13-.71.76-.08.46-.13.93-.17,1.44a7.18,7.18,0,0,0,0,.92c0,.28,0,1.83,0,2.09v0c0,.39-.06.79-.11,1.17s-.11,1-.15,1.54v0a1.6,1.6,0,0,1,0,.23c-.09.36-.15-.62-.24,2.13a23.66,23.66,0,0,1-.22,3.39l-.05.2a6.91,6.91,0,0,0-.16.79V93a1,1,0,0,0,0,.42,2.39,2.39,0,0,1,0,1,.24.24,0,0,0-.06-.09.25.25,0,0,0-.2-.09h0a.27.27,0,0,0-.2.16A.53.53,0,0,0,49,95a.25.25,0,0,0,.19.09h0a.23.23,0,0,0,.12-.06v.09a.22.22,0,0,1,0,.08,1.48,1.48,0,0,0,0,1.21.65.65,0,0,1,0,.21l0,0a.27.27,0,0,0-.12,0,.26.26,0,0,0-.21.11.57.57,0,0,0-.08.47s0,.06,0,.07a.36.36,0,0,0,0,.14l-.08,0a.27.27,0,0,0-.12,0,.31.31,0,0,0-.13,0,.3.3,0,0,0-.13.21l0,.21q0,.25,0,.48ZM46.11,80.57l0,.09v0a.5.5,0,0,0,.15.52.27.27,0,0,0,.17.06h.08a.25.25,0,0,0,.17-.19.61.61,0,0,0-.07-.49.49.49,0,0,0,.14-.41s0,0,0-.06a.5.5,0,0,0-.05-.16c-.07-.24-.21-.29-.31-.29a.33.33,0,0,0-.22.09.45.45,0,0,0-.15.52.3.3,0,0,0,0,.1l0,0A.53.53,0,0,0,46.11,80.57Zm-1-3.4-.14,0,0-.08a1.51,1.51,0,0,1,0-.47.47.47,0,0,1,.07-.22,3,3,0,0,0,.12.54l0,.1a1.25,1.25,0,0,1,0,.15Z"/><path class="cls-1" d="M14.8,86.39a3.06,3.06,0,0,0-.53-.38,3.47,3.47,0,0,1-.37-.26,1.31,1.31,0,0,0-.43-.25.41.41,0,0,0-.16,0,.55.55,0,0,0-.28.08,1.1,1.1,0,0,0-.45-.92.44.44,0,0,1-.19-.36v0a.52.52,0,0,0-.2-.43.24.24,0,0,0-.14-.05.3.3,0,0,0-.15.05l-.05,0-.06-.29v0a.52.52,0,0,0-.18-.35.88.88,0,0,1-.24-.45,2.5,2.5,0,0,0-.15-.38.48.48,0,0,1,0-.17.73.73,0,0,0,0-.38,1.27,1.27,0,0,0-.14-.21.48.48,0,0,1-.11-.17,1,1,0,0,0-.12-.32.68.68,0,0,1-.09-.33.4.4,0,0,0-.18-.35c-.12-.06-.14-.18-.12-.51v-.21c0-.87-.59-1-.84-1H9.53l.05-.06a.88.88,0,0,1,.2-.17l.1-.06a.27.27,0,0,0,.09-.3,1.78,1.78,0,0,0-.44-.66.61.61,0,0,0-.37-.23,2.37,2.37,0,0,0,0-.43,2,2,0,0,1,.63-1.28,1.14,1.14,0,0,0,.34-.9c-.05-.62-.1-1.27-.11-1.93,0-.25,0-.49,0-.73a10.73,10.73,0,0,1,0-1.5,2.38,2.38,0,0,0,0-.6,3.7,3.7,0,0,1,0-.47v-.14a2.63,2.63,0,0,1,.07-.58.86.86,0,0,0,0-.45,2.76,2.76,0,0,1-.07-.78c0-.15,0-.31,0-.46,0-.46-.06-.79-.41-.79-.16,0-.3.1-.6.31A4.82,4.82,0,0,1,8,67l-.29.13-.61.26c-.43.19-.88.39-1.33.62l-.09,0A10.85,10.85,0,0,1,4,68.82a10.55,10.55,0,0,1-1.34.34H2.53L2.14,69c-.39-.12-.77-.23-1.15-.36a.44.44,0,0,1-.22-.16,3,3,0,0,0-.69-.7c-.11-.08-.11-.29,0-.49a.8.8,0,0,1,.43-.42,2.87,2.87,0,0,0,1.16-.78,2,2,0,0,1,.53-.41l.11-.07.81-.54c.37-.25.74-.5,1.11-.72L5,63.89l.5-.31C6,63.31,6.4,63,7,62.63l.58-.39.82-.58c.23-.16.46-.3.71-.45l.5-.31a.67.67,0,0,0,.38-.82,10.88,10.88,0,0,1-.1-1.16,11.18,11.18,0,0,0-.16-1.53,1.54,1.54,0,0,1,0-.38,1.62,1.62,0,0,0,0-.22.15.15,0,0,1,0-.06,1,1,0,0,1,.33-.22,1.67,1.67,0,0,0,.23-.12l0,0,.12.1.07.08a4.23,4.23,0,0,1,.44.49,4.87,4.87,0,0,0,.43.49,4,4,0,0,1,.44.58l.17.25a.84.84,0,0,0,.66.41h.13A.32.32,0,0,0,13,59l.14,0a.85.85,0,0,0,.25-.05l.07,0h0a1,1,0,0,1,.22,0s.05,0,.08.05a.34.34,0,0,0,.24.18l.08,0s0,.08,0,.11a.47.47,0,0,0,.21.45l.08.08h0a.58.58,0,0,1-.13.19c-.09.12-.19.24-.12.41a.61.61,0,0,1,0,.24.76.76,0,0,0,.24.7h0s0,0,0,0l0,0c0,.07,0,.09,0,.15a.76.76,0,0,0-.24.85.91.91,0,0,1-.28.94,5.78,5.78,0,0,1-1.35,1l0,0a1.05,1.05,0,0,0-.57,1.17,11,11,0,0,1,.26,2,17.26,17.26,0,0,0,.19,2.09c0,.11,0,.23,0,.35a2.56,2.56,0,0,0,0,.39c.09.63.18,1.26.26,1.89s.15,1.13.23,1.7c0,.32.11.65.17,1s.09.41.12.62c.07.38.3.43.43.43a.48.48,0,0,0,.23,0,4.12,4.12,0,0,0,1.57-1.11l.11-.13a.83.83,0,0,1,.18-.19,8.09,8.09,0,0,0,.81-.73c.21-.21.41-.4.62-.58a1.54,1.54,0,0,0,.25-.26,17.22,17.22,0,0,1,1.42-1.64l.08-.09a2.29,2.29,0,0,0,.39-.51.73.73,0,0,1,.35-.38,1.25,1.25,0,0,0,.55-.74.83.83,0,0,1,.13-.25,10.24,10.24,0,0,0,1.09-1.37l.5-.67c.75-1,1.45-2,2.1-3l.18-.23.14-.19,0,0a.62.62,0,0,0,.15-.35.4.4,0,0,1,.09-.27h0a1.57,1.57,0,0,1-.17.9,1.55,1.55,0,0,0-.08.23,3.83,3.83,0,0,0-.19.72.29.29,0,0,0-.22-.13h0a.26.26,0,0,0-.22.13c-.07.12-.15.23-.22.34-.16.26-.31.5-.45.75s-.34.58-.51.86-.32.49-.46.74c-.32.57-.66,1.12-1,1.64l-.66,1-.3.46,0,0a.57.57,0,0,0-.11.22,1.8,1.8,0,0,1-.33.7,3,3,0,0,0-.36.69,3.23,3.23,0,0,0-.59.94c-.06.11-.11.23-.17.34l0,0a2.26,2.26,0,0,0-.26.65A1.26,1.26,0,0,1,18,75a1.1,1.1,0,0,0-.29.92c0,.12,0,.13,0,.17a1.59,1.59,0,0,0-.48.79.7.7,0,0,1-.2.26.52.52,0,0,0-.1.7L17,78l-.1.11a3,3,0,0,1-.24.26,2.25,2.25,0,0,0-.82,2,.81.81,0,0,0-.08.86v0a.29.29,0,0,0,0,.09,3.69,3.69,0,0,0,0,1.1,4.71,4.71,0,0,1,0,.92c0,.21,0,.42,0,.63,0,0,0,.08,0,.13s0,.08,0,.12l0,.12a2.06,2.06,0,0,0-.15.79.34.34,0,0,1,0,.16A11.22,11.22,0,0,0,14.8,86.39ZM10.81,59a.35.35,0,0,0-.22.12.47.47,0,0,0-.08.31.42.42,0,0,0,.42.42h.12a.39.39,0,0,0,.28-.4.36.36,0,0,0,0-.1.52.52,0,0,0-.45-.34Z"/><path class="cls-1" d="M38.41,77.35l-.06,0a.72.72,0,0,0-.33-.1.53.53,0,0,0-.24.06.53.53,0,0,0-.34-.43.59.59,0,0,0,0-.6.24.24,0,0,0-.23-.14h0a.24.24,0,0,0-.23.14l0,.08a.5.5,0,0,0-.06.53A.24.24,0,0,0,37,77l0,0a.58.58,0,0,0-.26-.13s0-.08,0-.11v-.06c0-.15-.08-.53-.46-.53h0a1.64,1.64,0,0,0-.16-.39l-.1-.19c-.1-.3-.3-.33-.38-.33a.38.38,0,0,0-.22.07,5.12,5.12,0,0,0-.44-.48l-.19-.19-.11-.08c0-.35.07-1,.11-1.51l0-.46a.27.27,0,0,0-.14-.25c.09-1.36.22-3.13.27-3.33a.39.39,0,0,0,0-.26,3,3,0,0,1,0-1,4,4,0,0,0,0-.49c0-.15,0-.31,0-.46,0-.33,0-.65,0-1a7.46,7.46,0,0,0,0-1.06,8.49,8.49,0,0,1,0-.87,1.44,1.44,0,0,0-.06-.43.85.85,0,0,1-.05-.26.39.39,0,0,0-.11-.29.29.29,0,0,0-.23-.1A.42.42,0,0,0,34,63l-.07.06a6.38,6.38,0,0,0-.71.75A9.8,9.8,0,0,1,32,65.26a1,1,0,0,0-.25.42l0,.09a2.86,2.86,0,0,1-.29.72.7.7,0,0,0-.09.29c0,.89-.3,5.63-.52,6.38a.92.92,0,0,1-.54.68h0a.42.42,0,0,0-.16,0,.37.37,0,0,0-.29.16.45.45,0,0,1-.12.12,1.33,1.33,0,0,0-.26.3.33.33,0,0,0-.22-.08h-.1a.46.46,0,0,0-.3.3s0,0,0,0a.91.91,0,0,0-.1.29c0,.12,0,.19-.11.25a.33.33,0,0,0-.11.28.7.7,0,0,0-.27.08.45.45,0,0,0-.13-.1h0a.32.32,0,0,0,.13-.16.33.33,0,0,0-.2-.42l-.1,0a.32.32,0,0,0-.32.3.37.37,0,0,0,.09.27h-.05a.42.42,0,0,0-.22,0,.52.52,0,0,0-.4.22.36.36,0,0,0-.35-.32h-.12a.19.19,0,0,0-.06-.07.43.43,0,0,0-.31-.17.32.32,0,0,0-.16,0,.89.89,0,0,0-.41-.44l-.17-.12,0-.06a.5.5,0,0,0,0-.49c-.13-.31-.26-3-.32-4.22,0-.52,0-.9-.05-1a2,2,0,0,1,0-.65,6.11,6.11,0,0,0,.06-1,4.34,4.34,0,0,1,0-.51c0-.15,0-.3,0-.44a8,8,0,0,1,0-.86,3.48,3.48,0,0,0,0-1,1.21,1.21,0,0,1,.17-.79,1.26,1.26,0,0,0,.2-.67v0a1.22,1.22,0,0,1,.11-.69.57.57,0,0,0,.05-.41,3.71,3.71,0,0,1,.07-1.49.87.87,0,0,1,.42-.57l.09-.06a2.3,2.3,0,0,0,.6-.44.89.89,0,0,1,.26-.16l.11,0a2,2,0,0,0,.61,1.34,4.16,4.16,0,0,1,.41.51,4.59,4.59,0,0,0,.33.44,20.59,20.59,0,0,0,1.8,1.74,4.3,4.3,0,0,1,.84.91,1.2,1.2,0,0,1,.14.3l.08.21a.32.32,0,0,0,.19.15h.05a.24.24,0,0,0,.18-.07l.27-.26,1.05-1a.49.49,0,0,0,.18-.31,1.24,1.24,0,0,1,.1-.35,2.58,2.58,0,0,0,.1-.33,2,2,0,0,1,.54-.92l.11-.13a1.44,1.44,0,0,1,.33-.27,1.44,1.44,0,0,0,.58-.57,1.12,1.12,0,0,0,.68-.72,1.3,1.3,0,0,1,.82-.67,4.3,4.3,0,0,1,1.38-.23,6.2,6.2,0,0,1,.84.07,2.87,2.87,0,0,1,1.36.58,2.73,2.73,0,0,0,1.31.51l.1,0a1.62,1.62,0,0,1,.43.16c.1.06.13.09.13.11A1.3,1.3,0,0,0,43,61l0,0a.9.9,0,0,1,.42.83v.08a.86.86,0,0,0,.13.52s0,.08,0,.11a.43.43,0,0,0,0,.05.45.45,0,0,0,0,.26,2,2,0,0,1-.43,1.44,3.35,3.35,0,0,0-.21.36,1.42,1.42,0,0,1-.66.65.7.7,0,0,0-.33.29,3.32,3.32,0,0,1-.46.69,3.74,3.74,0,0,0-.62,1s0,0,0,0a.36.36,0,0,0,.09.48.42.42,0,0,1,0,.12,2.76,2.76,0,0,0-.08.79v.18c0,.35-.43,4-.57,4.46a.42.42,0,0,0-.11.45.37.37,0,0,0,.35.22h0s0,.1,0,.13a.77.77,0,0,1,0,.27.78.78,0,0,0,0,.68c0,.07.05.14.06.2s0,.21,0,.25l-.18,0a.7.7,0,0,0-.49.21.33.33,0,0,1-.2.11h0a.57.57,0,0,0-.18,0c-.13,0-.35.06-.42.44l0,.14c-.36,0-.42.39-.44.54v0c0,.16,0,.19-.1.24l-.09,0Z"/><text class="cls-2" transform="translate(80.43 92.57) rotate(-90)">SHENZHEN</text></g></g></svg>